<?xml version="1.0" encoding="iso-8859-1"?>
<!-- Uploaded to: SVG Repo, www.svgrepo.com, Generator: SVG Repo Mixer Tools -->
<svg fill="#000000" height="800px" width="800px" version="1.1" id="Capa_1" xmlns="http://www.w3.org/2000/svg" xmlns:xlink="http://www.w3.org/1999/xlink" 
	 viewBox="0 0 488.5 488.5" xml:space="preserve">
<g>
	<path d="M0,331.9V156.5c0-18.8,15.3-34.1,34.1-34.1h325.2c18.8,0,34.1,15.3,34.1,34.1v10.3h-22.6c-11.8,0-21.3,9.6-21.3,21.3v5.7
		c-16.1-3-28.2-17-28.2-33.9c0-2.9,0.4-5.7,1-8.4H69.1c0.4,2.1,0.6,4.2,0.6,6.3c0,19.1-15.5,34.5-34.5,34.5c-2.1,0-4.1-0.2-6.1-0.5
		v104.8c2-0.3,4-0.5,6.1-0.5c19.1,0,34.5,15.4,34.5,34.5c0,2.2-0.2,4.3-0.6,6.3h212l-0.1,12.4v13.4c0,1.1,0.2,2.3,0.3,3.4H34.1
		C15.3,366,0,350.7,0,331.9z M415.9,345.9h-45.2c-1.9,0-3.4,1.5-3.4,3.4v13.4c0,1.9,1.5,3.4,3.4,3.4h45.2c1.9,0,3.4-1.5,3.4-3.4
		v-13.5C419.3,347.4,417.8,345.9,415.9,345.9z M415.9,319h-45.2c-1.9,0-3.4,1.5-3.4,3.4v13.4c0,1.9,1.5,3.4,3.4,3.4h45.2
		c1.9,0,3.4-1.5,3.4-3.4v-13.4C419.3,320.5,417.8,319,415.9,319z M415.9,292.2h-45.2c-1.9,0-3.4,1.5-3.4,3.4V309
		c0,1.9,1.5,3.4,3.4,3.4h45.2c1.9,0,3.4-1.5,3.4-3.4v-13.4C419.3,293.7,417.8,292.2,415.9,292.2z M415.9,265.3h-45.2
		c-1.9,0-3.4,1.5-3.4,3.4v13.4c0,1.9,1.5,3.4,3.4,3.4h45.2c1.9,0,3.4-1.5,3.4-3.4v-13.4C419.3,266.8,417.8,265.3,415.9,265.3z
		 M415.9,238.5h-45.2c-1.9,0-3.4,1.5-3.4,3.4v13.3c0,1.9,1.5,3.4,3.4,3.4h45.2c1.9,0,3.4-1.5,3.4-3.4v-13.4
		C419.3,240,417.8,238.5,415.9,238.5z M415.9,211.6h-45.2c-1.9,0-3.4,1.5-3.4,3.4v13.4c0,1.9,1.5,3.4,3.3,3.4h45.2
		c1.9,0,3.4-1.5,3.4-3.4V215C419.3,213.1,417.8,211.6,415.9,211.6z M415.9,184.8h-45.2c-1.9,0-3.4,1.5-3.4,3.4v13.4
		c0,1.9,1.5,3.4,3.4,3.4h45.2c1.9,0,3.4-1.5,3.4-3.4v-13.4C419.3,186.3,417.8,184.8,415.9,184.8z M485.1,345.9h-45.2
		c-1.9,0-3.4,1.5-3.4,3.4v13.4c0,1.9,1.5,3.4,3.4,3.4h45.2c1.9,0,3.4-1.5,3.4-3.4v-13.5C488.4,347.4,486.9,345.9,485.1,345.9z
		 M485.1,319h-45.2c-1.9,0-3.4,1.5-3.4,3.4v13.4c0,1.9,1.5,3.4,3.4,3.4h45.2c1.9,0,3.4-1.5,3.4-3.4v-13.4
		C488.4,320.5,486.9,319,485.1,319z M485.1,292.2h-45.2c-1.9,0-3.4,1.5-3.4,3.4V309c0,1.9,1.5,3.4,3.4,3.4h45.2
		c1.9,0,3.4-1.5,3.4-3.4v-13.4C488.4,293.7,486.9,292.2,485.1,292.2z M346.8,345.9h-45.2c-1.9,0-3.4,1.5-3.4,3.4v13.4
		c0,1.9,1.5,3.4,3.4,3.4h45.2c1.9,0,3.4-1.5,3.4-3.4v-13.5C350.2,347.4,348.7,345.9,346.8,345.9z M350.2,322.4
		c0-1.9-1.5-3.4-3.4-3.4h-45.2c-1.9,0-3.4,1.5-3.4,3.4v13.4c0,1.9,1.5,3.4,3.4,3.4h45.2c1.9,0,3.4-1.5,3.4-3.4V322.4z M350.2,295.6
		c0-1.9-1.5-3.4-3.4-3.4h-45.2c-1.9,0-3.4,1.5-3.4,3.4V309c0,1.9,1.5,3.4,3.4,3.4h45.2c1.9,0,3.4-1.5,3.4-3.4V295.6z M350.2,268.7
		c0-1.9-1.5-3.4-3.4-3.4h-45.2c-1.9,0-3.4,1.5-3.4,3.4v13.4c0,1.9,1.5,3.4,3.4,3.4h45.2c1.9,0,3.4-1.5,3.4-3.4V268.7z M350.2,241.8
		c0-1.9-1.5-3.4-3.4-3.4h-45.2c-1.9,0-3.4,1.5-3.4,3.4v13.4c0,1.9,1.5,3.4,3.4,3.4h45.2c1.9,0,3.4-1.5,3.4-3.4V241.8z M196.7,169.5
		c41.2,0,74.7,33.4,74.7,74.7c0,41.2-33.4,74.7-74.7,74.7S122,285.5,122,244.2C122,203,155.4,169.5,196.7,169.5z M203.2,188.7h-8.5
		c-1.3,0-2.3,1-2.3,2.3v10.2c-6.5,0.9-11.7,3.3-15.8,7.2c-4.4,4.3-6.7,9.7-6.7,16.3c0,7.3,2.1,12.8,6.3,16.5
		c4.2,3.8,10.9,7.5,20,11.1c3.8,1.6,6.4,3.3,7.9,5c1.5,1.7,2.2,4.1,2.2,7.1c0,2.6-0.7,4.8-2.2,6.4c-1.4,1.6-3.6,2.5-6.4,2.5
		c-3.3,0-6.1-1.1-8.2-3.2c-1.7-1.7-2.7-4.4-3-8c-0.1-1.4-1.4-2.4-2.8-2.4l-14,0.3c-1.5,0-2.8,1.3-2.7,2.8c0.4,7.4,2.8,13.1,7.2,17.2
		c4.8,4.4,10.8,7,18,7.8v9.6c0,1.3,1.1,2.3,2.3,2.3h8.5c1.3,0,2.3-1.1,2.3-2.3v-9.8c5.8-1.1,10.4-3.3,14.1-6.8
		c4.3-4.1,6.4-9.6,6.4-16.3c0-7.1-2.1-12.6-6.4-16.4c-4.2-3.8-10.9-7.7-19.9-11.5c-3.9-1.7-6.5-3.4-8-5.1c-1.4-1.7-2.1-3.9-2.1-6.5
		s0.7-4.8,2-6.5s3.4-2.6,6.1-2.6c2.7,0,4.9,1,6.5,3.1c1.3,1.7,2.1,4,2.4,7.1c0.1,1.4,1.4,2.4,2.8,2.4l14-0.2c1.5,0,2.8-1.3,2.7-2.8
		c-0.4-6.1-2.3-11.2-5.9-15.4c-3.7-4.3-8.6-7-14.7-8.3v-10.6C205.6,189.7,204.5,188.7,203.2,188.7z M67.4,244.2
		c0,11.4,9.3,20.7,20.7,20.7s20.7-9.3,20.7-20.7c0-11.4-9.3-20.7-20.7-20.7S67.4,232.8,67.4,244.2z"/>
</g>
</svg>